<svg viewBox="0 0 265 311" fill="none" xmlns="http://www.w3.org/2000/svg">
<path d="M178.633 91.9868C203.814 107.695 203.721 144.391 178.461 159.97L119.73 196.193C93.0411 212.654 58.6522 193.402 58.7319 162.046L58.9169 89.3022C58.9967 57.9459 93.4832 38.8698 120.088 55.4657L178.633 91.9868Z" fill="#1E1E35"/>
<path d="M193.301 121.46C218.482 137.168 218.389 173.864 193.129 189.444L134.398 225.667C107.709 242.127 73.3201 222.876 73.3999 191.52L73.5849 118.776C73.6647 87.4193 108.151 68.3432 134.756 84.9391L193.301 121.46Z" fill="#2A2A48"/>
<path d="M209.301 151.46C234.482 167.168 234.389 203.864 209.129 219.444L150.398 255.667C123.709 272.127 89.3201 252.876 89.3999 221.52L89.5849 148.776C89.6647 117.419 124.151 98.3432 150.756 114.939L209.301 151.46Z" fill="#FFD705"/>
<path d="M113.861 159.352C113.861 158.309 114.061 157.33 114.459 156.416C114.857 155.502 115.396 154.705 116.076 154.025C116.768 153.334 117.57 152.789 118.484 152.391C119.398 151.992 120.377 151.793 121.42 151.793H132.986V156.838H121.42C121.068 156.838 120.74 156.902 120.436 157.031C120.131 157.16 119.861 157.342 119.627 157.576C119.404 157.799 119.229 158.062 119.1 158.367C118.971 158.672 118.906 159 118.906 159.352C118.906 159.703 118.971 160.037 119.1 160.354C119.229 160.658 119.404 160.928 119.627 161.162C119.861 161.385 120.131 161.561 120.436 161.689C120.74 161.818 121.068 161.883 121.42 161.883H126.465C127.508 161.883 128.486 162.082 129.4 162.48C130.326 162.867 131.129 163.406 131.809 164.098C132.5 164.777 133.039 165.58 133.426 166.506C133.824 167.42 134.023 168.398 134.023 169.441C134.023 170.484 133.824 171.463 133.426 172.377C133.039 173.291 132.5 174.094 131.809 174.785C131.129 175.465 130.326 176.004 129.4 176.402C128.486 176.801 127.508 177 126.465 177H115.268V171.955H126.465C126.816 171.955 127.145 171.891 127.449 171.762C127.754 171.633 128.018 171.457 128.24 171.234C128.475 171 128.656 170.73 128.785 170.426C128.914 170.121 128.979 169.793 128.979 169.441C128.979 169.09 128.914 168.762 128.785 168.457C128.656 168.152 128.475 167.889 128.24 167.666C128.018 167.432 127.754 167.25 127.449 167.121C127.145 166.992 126.816 166.928 126.465 166.928H121.42C120.377 166.928 119.398 166.729 118.484 166.33C117.57 165.932 116.768 165.393 116.076 164.713C115.396 164.021 114.857 163.219 114.459 162.305C114.061 161.379 113.861 160.395 113.861 159.352ZM142.391 177H137.346V151.793H142.391V161.883H152.463V151.793H157.508V177H152.463V166.928H142.391V177ZM177.037 166.928V161.883C177.037 161.191 176.902 160.541 176.633 159.932C176.375 159.311 176.018 158.771 175.561 158.314C175.104 157.857 174.564 157.5 173.943 157.242C173.334 156.973 172.684 156.838 171.992 156.838C171.301 156.838 170.645 156.973 170.023 157.242C169.414 157.5 168.881 157.857 168.424 158.314C167.967 158.771 167.604 159.311 167.334 159.932C167.076 160.541 166.947 161.191 166.947 161.883V166.928H177.037ZM182.082 177H177.037V171.955H166.947V177H161.92V161.883C161.92 160.488 162.184 159.182 162.711 157.963C163.238 156.732 163.953 155.66 164.855 154.746C165.77 153.832 166.836 153.111 168.055 152.584C169.285 152.057 170.598 151.793 171.992 151.793C173.387 151.793 174.693 152.057 175.912 152.584C177.143 153.111 178.215 153.832 179.129 154.746C180.043 155.66 180.764 156.732 181.291 157.963C181.818 159.182 182.082 160.488 182.082 161.883V177ZM120.383 201.838V211.928H125.428C126.119 211.928 126.77 211.799 127.379 211.541C127.988 211.271 128.521 210.908 128.979 210.451C129.436 209.994 129.793 209.461 130.051 208.852C130.32 208.23 130.455 207.574 130.455 206.883C130.455 206.191 130.32 205.541 130.051 204.932C129.793 204.311 129.436 203.771 128.979 203.314C128.521 202.857 127.988 202.5 127.379 202.242C126.77 201.973 126.119 201.838 125.428 201.838H120.383ZM120.383 222H115.338V196.793H125.428C126.354 196.793 127.244 196.916 128.1 197.162C128.955 197.396 129.752 197.736 130.49 198.182C131.24 198.615 131.92 199.143 132.529 199.764C133.15 200.373 133.678 201.053 134.111 201.803C134.557 202.553 134.896 203.355 135.131 204.211C135.377 205.066 135.5 205.957 135.5 206.883C135.5 207.75 135.389 208.594 135.166 209.414C134.955 210.234 134.645 211.014 134.234 211.752C133.836 212.49 133.344 213.17 132.758 213.791C132.172 214.412 131.516 214.951 130.789 215.408L133.584 222H128.223L126.025 216.92L120.383 216.955V222ZM160.145 227.045H154.414L151.391 222.51C151.227 222.533 151.068 222.545 150.916 222.545C150.775 222.545 150.635 222.545 150.494 222.545C149.299 222.545 148.145 222.387 147.031 222.07C145.93 221.766 144.893 221.332 143.92 220.77C142.959 220.195 142.08 219.51 141.283 218.713C140.486 217.916 139.801 217.037 139.227 216.076C138.664 215.104 138.225 214.066 137.908 212.965C137.604 211.852 137.451 210.697 137.451 209.502C137.451 208.307 137.604 207.152 137.908 206.039C138.225 204.926 138.664 203.889 139.227 202.928C139.801 201.967 140.486 201.088 141.283 200.291C142.08 199.494 142.959 198.814 143.92 198.252C144.893 197.689 145.93 197.256 147.031 196.951C148.145 196.635 149.299 196.477 150.494 196.477C151.689 196.477 152.844 196.635 153.957 196.951C155.07 197.256 156.107 197.689 157.068 198.252C158.029 198.814 158.908 199.494 159.705 200.291C160.502 201.088 161.182 201.967 161.744 202.928C162.307 203.889 162.74 204.926 163.045 206.039C163.361 207.152 163.52 208.307 163.52 209.502C163.52 210.744 163.344 211.951 162.992 213.123C162.652 214.295 162.166 215.391 161.533 216.41C160.9 217.418 160.133 218.332 159.23 219.152C158.34 219.973 157.344 220.658 156.242 221.209L160.145 227.045ZM158.51 209.502C158.51 208.4 158.299 207.363 157.877 206.391C157.455 205.406 156.881 204.557 156.154 203.842C155.439 203.115 154.59 202.541 153.605 202.119C152.633 201.697 151.596 201.486 150.494 201.486C149.381 201.486 148.338 201.697 147.365 202.119C146.393 202.541 145.543 203.115 144.816 203.842C144.09 204.557 143.516 205.406 143.094 206.391C142.672 207.363 142.461 208.4 142.461 209.502C142.461 210.604 142.672 211.641 143.094 212.613C143.516 213.574 144.09 214.418 144.816 215.145C145.543 215.871 146.393 216.445 147.365 216.867C148.338 217.289 149.381 217.5 150.494 217.5C151.596 217.5 152.633 217.289 153.605 216.867C154.59 216.445 155.439 215.871 156.154 215.145C156.881 214.418 157.455 213.574 157.877 212.613C158.299 211.641 158.51 210.604 158.51 209.502ZM171.887 222H166.842V196.793H171.887V222Z" fill="black"/>
<path d="M132.986 151.793H134.986V149.793H132.986V151.793ZM132.986 156.838V158.838H134.986V156.838H132.986ZM119.1 160.354L117.247 161.108L117.252 161.12L117.258 161.133L119.1 160.354ZM119.627 161.162L118.177 162.54L118.212 162.577L118.249 162.612L119.627 161.162ZM129.4 162.48L128.601 164.314L128.615 164.32L128.63 164.326L129.4 162.48ZM131.809 164.098L130.382 165.5L130.394 165.512L130.407 165.524L131.809 164.098ZM133.426 166.506L131.58 167.277L131.586 167.291L131.592 167.305L133.426 166.506ZM133.426 172.377L131.592 171.578L131.588 171.588L131.584 171.598L133.426 172.377ZM129.4 176.402L128.61 174.565L128.601 174.569L129.4 176.402ZM115.268 177H113.268V179H115.268V177ZM115.268 171.955V169.955H113.268V171.955H115.268ZM128.24 167.666L126.79 169.044L126.826 169.081L126.863 169.116L128.24 167.666ZM116.076 164.713L114.65 166.115L114.662 166.127L114.674 166.139L116.076 164.713ZM114.459 162.305L112.622 163.095L112.626 163.104L114.459 162.305ZM115.861 159.352C115.861 158.571 116.009 157.866 116.292 157.215L112.626 155.617C112.112 156.795 111.861 158.046 111.861 159.352H115.861ZM116.292 157.215C116.595 156.522 116.994 155.936 117.49 155.44L114.662 152.611C113.799 153.474 113.12 154.482 112.626 155.617L116.292 157.215ZM117.49 155.44C118.001 154.929 118.594 154.524 119.284 154.224L117.685 150.557C116.546 151.054 115.534 151.739 114.662 152.611L117.49 155.44ZM119.284 154.224C119.934 153.941 120.639 153.793 121.42 153.793V149.793C120.115 149.793 118.863 150.044 117.685 150.557L119.284 154.224ZM121.42 153.793H132.986V149.793H121.42V153.793ZM130.986 151.793V156.838H134.986V151.793H130.986ZM132.986 154.838H121.42V158.838H132.986V154.838ZM121.42 154.838C120.818 154.838 120.223 154.95 119.656 155.189L121.215 158.873C121.258 158.855 121.319 158.838 121.42 158.838V154.838ZM119.656 155.189C119.114 155.419 118.629 155.746 118.213 156.162L121.041 158.99C121.094 158.938 121.148 158.902 121.215 158.873L119.656 155.189ZM118.213 156.162C117.799 156.576 117.482 157.058 117.258 157.588L120.942 159.146C120.975 159.067 121.01 159.022 121.041 158.99L118.213 156.162ZM117.258 157.588C117.018 158.154 116.906 158.749 116.906 159.352H120.906C120.906 159.251 120.923 159.189 120.942 159.146L117.258 157.588ZM116.906 159.352C116.906 159.954 117.018 160.545 117.247 161.108L120.952 159.599C120.923 159.529 120.906 159.452 120.906 159.352H116.906ZM117.258 161.133C117.478 161.654 117.785 162.127 118.177 162.54L121.077 159.785C121.024 159.729 120.979 159.663 120.942 159.574L117.258 161.133ZM118.249 162.612C118.662 163.004 119.136 163.311 119.656 163.531L121.215 159.848C121.126 159.81 121.06 159.765 121.004 159.712L118.249 162.612ZM119.656 163.531C120.223 163.771 120.818 163.883 121.42 163.883V159.883C121.319 159.883 121.258 159.866 121.215 159.848L119.656 163.531ZM121.42 163.883H126.465V159.883H121.42V163.883ZM126.465 163.883C127.246 163.883 127.951 164.03 128.601 164.314L130.2 160.647C129.022 160.134 127.77 159.883 126.465 159.883V163.883ZM128.63 164.326C129.318 164.614 129.896 165.005 130.382 165.5L133.235 162.696C132.362 161.808 131.334 161.121 130.171 160.635L128.63 164.326ZM130.407 165.524C130.901 166.01 131.293 166.588 131.58 167.277L135.271 165.735C134.786 164.572 134.099 163.544 133.211 162.671L130.407 165.524ZM131.592 167.305C131.876 167.955 132.023 168.661 132.023 169.441H136.023C136.023 168.136 135.773 166.884 135.259 165.707L131.592 167.305ZM132.023 169.441C132.023 170.222 131.876 170.927 131.592 171.578L135.259 173.176C135.773 171.998 136.023 170.746 136.023 169.441H132.023ZM131.584 171.598C131.296 172.278 130.901 172.864 130.394 173.371L133.223 176.199C134.099 175.323 134.782 174.304 135.268 173.156L131.584 171.598ZM130.394 173.371C129.903 173.863 129.314 174.262 128.61 174.565L130.191 178.239C131.338 177.746 132.355 177.067 133.223 176.199L130.394 173.371ZM128.601 174.569C127.951 174.852 127.246 175 126.465 175V179C127.77 179 129.022 178.749 130.2 178.236L128.601 174.569ZM126.465 175H115.268V179H126.465V175ZM117.268 177V171.955H113.268V177H117.268ZM115.268 173.955H126.465V169.955H115.268V173.955ZM126.465 173.955C127.067 173.955 127.662 173.843 128.228 173.604L126.67 169.92C126.627 169.938 126.566 169.955 126.465 169.955V173.955ZM128.228 173.604C128.758 173.38 129.241 173.063 129.654 172.649L126.826 169.82C126.795 169.852 126.75 169.886 126.67 169.92L128.228 173.604ZM129.654 172.649C130.071 172.232 130.398 171.747 130.627 171.205L126.943 169.647C126.915 169.714 126.879 169.768 126.826 169.82L129.654 172.649ZM130.627 171.205C130.867 170.639 130.979 170.044 130.979 169.441H126.979C126.979 169.542 126.961 169.604 126.943 169.647L130.627 171.205ZM130.979 169.441C130.979 168.839 130.867 168.244 130.627 167.678L126.943 169.236C126.961 169.279 126.979 169.341 126.979 169.441H130.979ZM130.627 167.678C130.394 167.126 130.056 166.632 129.618 166.216L126.863 169.116C126.893 169.145 126.919 169.179 126.943 169.236L130.627 167.678ZM129.69 166.289C129.274 165.85 128.78 165.513 128.228 165.279L126.67 168.963C126.728 168.987 126.761 169.013 126.79 169.044L129.69 166.289ZM128.228 165.279C127.662 165.04 127.067 164.928 126.465 164.928V168.928C126.566 168.928 126.627 168.945 126.67 168.963L128.228 165.279ZM126.465 164.928H121.42V168.928H126.465V164.928ZM121.42 164.928C120.639 164.928 119.934 164.78 119.284 164.497L117.685 168.163C118.863 168.677 120.115 168.928 121.42 168.928V164.928ZM119.284 164.497C118.587 164.193 117.99 163.79 117.478 163.287L114.674 166.139C115.545 166.995 116.553 167.67 117.685 168.163L119.284 164.497ZM117.502 163.311C116.999 162.799 116.596 162.202 116.292 161.506L112.626 163.104C113.119 164.236 113.794 165.244 114.65 166.115L117.502 163.311ZM116.296 161.514C116.009 160.847 115.861 160.132 115.861 159.352H111.861C111.861 160.657 112.112 161.911 112.622 163.095L116.296 161.514ZM142.391 177V179H144.391V177H142.391ZM137.346 177H135.346V179H137.346V177ZM137.346 151.793V149.793H135.346V151.793H137.346ZM142.391 151.793H144.391V149.793H142.391V151.793ZM142.391 161.883H140.391V163.883H142.391V161.883ZM152.463 161.883V163.883H154.463V161.883H152.463ZM152.463 151.793V149.793H150.463V151.793H152.463ZM157.508 151.793H159.508V149.793H157.508V151.793ZM157.508 177V179H159.508V177H157.508ZM152.463 177H150.463V179H152.463V177ZM152.463 166.928H154.463V164.928H152.463V166.928ZM142.391 166.928V164.928H140.391V166.928H142.391ZM142.391 175H137.346V179H142.391V175ZM139.346 177V151.793H135.346V177H139.346ZM137.346 153.793H142.391V149.793H137.346V153.793ZM140.391 151.793V161.883H144.391V151.793H140.391ZM142.391 163.883H152.463V159.883H142.391V163.883ZM154.463 161.883V151.793H150.463V161.883H154.463ZM152.463 153.793H157.508V149.793H152.463V153.793ZM155.508 151.793V177H159.508V151.793H155.508ZM157.508 175H152.463V179H157.508V175ZM154.463 177V166.928H150.463V177H154.463ZM152.463 164.928H142.391V168.928H152.463V164.928ZM140.391 166.928V177H144.391V166.928H140.391ZM177.037 166.928V168.928H179.037V166.928H177.037ZM176.633 159.932L174.786 160.698L174.794 160.72L174.804 160.741L176.633 159.932ZM173.943 157.242L173.134 159.071L173.155 159.081L173.177 159.089L173.943 157.242ZM170.023 157.242L170.803 159.084L170.811 159.081L170.82 159.077L170.023 157.242ZM167.334 159.932L165.499 159.135L165.496 159.144L165.492 159.152L167.334 159.932ZM166.947 166.928H164.947V168.928H166.947V166.928ZM182.082 177V179H184.082V177H182.082ZM177.037 177H175.037V179H177.037V177ZM177.037 171.955H179.037V169.955H177.037V171.955ZM166.947 171.955V169.955H164.947V171.955H166.947ZM166.947 177V179H168.947V177H166.947ZM161.92 177H159.92V179H161.92V177ZM162.711 157.963L164.546 158.757L164.549 158.751L162.711 157.963ZM164.855 154.746L163.441 153.332L163.432 153.341L164.855 154.746ZM168.055 152.584L167.267 150.746L167.26 150.748L168.055 152.584ZM175.912 152.584L175.118 154.42L175.124 154.422L175.912 152.584ZM181.291 157.963L179.453 158.751L179.455 158.757L181.291 157.963ZM179.037 166.928V161.883H175.037V166.928H179.037ZM179.037 161.883C179.037 160.924 178.848 159.996 178.462 159.123L174.804 160.741C174.956 161.086 175.037 161.459 175.037 161.883H179.037ZM178.48 159.165C178.126 158.312 177.625 157.55 176.975 156.9L174.146 159.729C174.411 159.993 174.624 160.309 174.786 160.698L178.48 159.165ZM176.975 156.9C176.325 156.25 175.563 155.749 174.71 155.395L173.177 159.089C173.566 159.251 173.882 159.464 174.146 159.729L176.975 156.9ZM174.752 155.413C173.879 155.027 172.951 154.838 171.992 154.838V158.838C172.416 158.838 172.789 158.919 173.134 159.071L174.752 155.413ZM171.992 154.838C171.033 154.838 170.105 155.027 169.227 155.407L170.82 159.077C171.184 158.919 171.569 158.838 171.992 158.838V154.838ZM169.244 155.4C168.403 155.756 167.653 156.257 167.01 156.9L169.838 159.729C170.109 159.458 170.425 159.244 170.803 159.084L169.244 155.4ZM167.01 156.9C166.366 157.543 165.864 158.295 165.499 159.135L169.169 160.728C169.343 160.326 169.567 160 169.838 159.729L167.01 156.9ZM165.492 159.152C165.125 160.019 164.947 160.936 164.947 161.883H168.947C168.947 161.447 169.027 161.063 169.176 160.711L165.492 159.152ZM164.947 161.883V166.928H168.947V161.883H164.947ZM166.947 168.928H177.037V164.928H166.947V168.928ZM182.082 175H177.037V179H182.082V175ZM179.037 177V171.955H175.037V177H179.037ZM177.037 169.955H166.947V173.955H177.037V169.955ZM164.947 171.955V177H168.947V171.955H164.947ZM166.947 175H161.92V179H166.947V175ZM163.92 177V161.883H159.92V177H163.92ZM163.92 161.883C163.92 160.748 164.133 159.713 164.546 158.757L160.875 157.169C160.234 158.651 159.92 160.229 159.92 161.883H163.92ZM164.549 158.751C164.982 157.74 165.56 156.88 166.279 156.151L163.432 153.341C162.347 154.441 161.494 155.725 160.873 157.175L164.549 158.751ZM166.27 156.16C167.001 155.429 167.855 154.85 168.849 154.42L167.26 150.748C165.817 151.373 164.538 152.235 163.441 153.332L166.27 156.16ZM168.843 154.422C169.814 154.006 170.857 153.793 171.992 153.793V149.793C170.338 149.793 168.757 150.107 167.267 150.746L168.843 154.422ZM171.992 153.793C173.127 153.793 174.162 154.006 175.118 154.42L176.706 150.748C175.224 150.107 173.646 149.793 171.992 149.793V153.793ZM175.124 154.422C176.129 154.853 176.987 155.433 177.715 156.16L180.543 153.332C179.443 152.231 178.156 151.37 176.7 150.746L175.124 154.422ZM177.715 156.16C178.442 156.888 179.022 157.746 179.453 158.751L183.129 157.175C182.505 155.719 181.644 154.432 180.543 153.332L177.715 156.16ZM179.455 158.757C179.869 159.713 180.082 160.748 180.082 161.883H184.082C184.082 160.229 183.768 158.651 183.127 157.169L179.455 158.757ZM180.082 161.883V177H184.082V161.883H180.082ZM120.383 201.838V199.838H118.383V201.838H120.383ZM120.383 211.928H118.383V213.928H120.383V211.928ZM127.379 211.541L128.158 213.383L128.173 213.377L128.188 213.37L127.379 211.541ZM130.051 208.852L128.216 208.055L128.212 208.064L128.209 208.072L130.051 208.852ZM130.051 204.932L128.204 205.698L128.212 205.72L128.222 205.741L130.051 204.932ZM127.379 202.242L126.57 204.071L126.585 204.078L126.6 204.084L127.379 202.242ZM120.383 222V224H122.383V222H120.383ZM115.338 222H113.338V224H115.338V222ZM115.338 196.793V194.793H113.338V196.793H115.338ZM128.1 197.162L127.547 199.084L127.559 199.088L127.571 199.091L128.1 197.162ZM130.49 198.182L129.457 199.894L129.473 199.904L129.489 199.913L130.49 198.182ZM132.529 199.764L131.102 201.164L131.115 201.178L131.129 201.191L132.529 199.764ZM134.111 201.803L132.38 202.804L132.386 202.814L132.392 202.824L134.111 201.803ZM135.131 204.211L133.202 204.739L133.205 204.752L133.209 204.764L135.131 204.211ZM135.166 209.414L133.236 208.89L133.232 208.903L133.229 208.916L135.166 209.414ZM134.234 211.752L132.486 210.781L132.48 210.791L132.474 210.802L134.234 211.752ZM130.789 215.408L129.724 213.715L128.283 214.622L128.948 216.189L130.789 215.408ZM133.584 222V224H136.604L135.425 221.219L133.584 222ZM128.223 222L126.387 222.794L126.909 224H128.223V222ZM126.025 216.92L127.861 216.126L127.336 214.912L126.013 214.92L126.025 216.92ZM120.383 216.955L120.37 214.955L118.383 214.968V216.955H120.383ZM118.383 201.838V211.928H122.383V201.838H118.383ZM120.383 213.928H125.428V209.928H120.383V213.928ZM125.428 213.928C126.375 213.928 127.291 213.75 128.158 213.383L126.6 209.699C126.248 209.848 125.864 209.928 125.428 209.928V213.928ZM128.188 213.37C129.016 213.004 129.756 212.502 130.393 211.865L127.564 209.037C127.287 209.314 126.961 209.539 126.57 209.712L128.188 213.37ZM130.393 211.865C131.036 211.222 131.537 210.472 131.893 209.631L128.209 208.072C128.049 208.45 127.835 208.766 127.564 209.037L130.393 211.865ZM131.885 209.648C132.266 208.77 132.455 207.842 132.455 206.883H128.455C128.455 207.306 128.374 207.691 128.216 208.055L131.885 209.648ZM132.455 206.883C132.455 205.924 132.266 204.996 131.88 204.123L128.222 205.741C128.374 206.086 128.455 206.459 128.455 206.883H132.455ZM131.898 204.165C131.544 203.312 131.043 202.55 130.393 201.9L127.564 204.729C127.828 204.993 128.042 205.309 128.204 205.698L131.898 204.165ZM130.393 201.9C129.749 201.257 128.999 200.756 128.158 200.4L126.6 204.084C126.978 204.244 127.294 204.458 127.564 204.729L130.393 201.9ZM128.188 200.413C127.314 200.027 126.387 199.838 125.428 199.838V203.838C125.851 203.838 126.225 203.919 126.57 204.071L128.188 200.413ZM125.428 199.838H120.383V203.838H125.428V199.838ZM120.383 220H115.338V224H120.383V220ZM117.338 222V196.793H113.338V222H117.338ZM115.338 198.793H125.428V194.793H115.338V198.793ZM125.428 198.793C126.174 198.793 126.878 198.892 127.547 199.084L128.653 195.24C127.61 194.94 126.533 194.793 125.428 194.793V198.793ZM127.571 199.091C128.254 199.278 128.881 199.547 129.457 199.894L131.523 196.469C130.623 195.926 129.656 195.515 128.628 195.233L127.571 199.091ZM129.489 199.913C130.082 200.256 130.618 200.672 131.102 201.164L133.957 198.363C133.222 197.613 132.398 196.975 131.491 196.45L129.489 199.913ZM131.129 201.191C131.621 201.675 132.037 202.211 132.38 202.804L135.843 200.802C135.318 199.895 134.68 199.071 133.93 198.336L131.129 201.191ZM132.392 202.824C132.744 203.417 133.014 204.054 133.202 204.739L137.06 203.682C136.779 202.657 136.369 201.688 135.831 200.782L132.392 202.824ZM133.209 204.764C133.401 205.432 133.5 206.137 133.5 206.883H137.5C137.5 205.778 137.353 204.7 137.053 203.658L133.209 204.764ZM133.5 206.883C133.5 207.577 133.411 208.244 133.236 208.89L137.096 209.938C137.366 208.943 137.5 207.923 137.5 206.883H133.5ZM133.229 208.916C133.06 209.572 132.813 210.192 132.486 210.781L135.983 212.723C136.476 211.835 136.85 210.897 137.103 209.912L133.229 208.916ZM132.474 210.802C132.16 211.384 131.771 211.922 131.303 212.419L134.213 215.163C134.916 214.418 135.512 213.596 135.994 212.702L132.474 210.802ZM131.303 212.419C130.834 212.916 130.309 213.348 129.724 213.715L131.854 217.101C132.723 216.555 133.51 215.908 134.213 215.163L131.303 212.419ZM128.948 216.189L131.743 222.781L135.425 221.219L132.63 214.627L128.948 216.189ZM133.584 220H128.223V224H133.584V220ZM130.058 221.206L127.861 216.126L124.19 217.714L126.387 222.794L130.058 221.206ZM126.013 214.92L120.37 214.955L120.395 218.955L126.038 218.92L126.013 214.92ZM118.383 216.955V222H122.383V216.955H118.383ZM160.145 227.045V229.045H163.888L161.807 225.933L160.145 227.045ZM154.414 227.045L152.75 228.154L153.344 229.045H154.414V227.045ZM151.391 222.51L153.055 221.4L152.356 220.352L151.108 220.53L151.391 222.51ZM147.031 222.07L147.578 220.146L147.564 220.143L147.031 222.07ZM143.92 220.77L142.894 222.486L142.906 222.494L142.919 222.501L143.92 220.77ZM139.227 216.076L137.495 217.077L137.502 217.09L137.51 217.102L139.227 216.076ZM137.908 212.965L135.979 213.493L135.982 213.505L135.986 213.517L137.908 212.965ZM137.908 206.039L135.984 205.492L135.982 205.502L135.979 205.511L137.908 206.039ZM139.227 202.928L137.51 201.902L137.505 201.91L137.501 201.917L139.227 202.928ZM143.92 198.252L142.919 196.521L142.91 196.526L143.92 198.252ZM147.031 196.951L147.564 198.879L147.578 198.875L147.031 196.951ZM153.957 196.951L153.41 198.875L153.42 198.878L153.429 198.88L153.957 196.951ZM163.045 206.039L161.116 206.567L161.118 206.576L161.121 206.586L163.045 206.039ZM162.992 213.123L161.077 212.548L161.074 212.557L161.071 212.566L162.992 213.123ZM161.533 216.41L163.227 217.474L163.232 217.465L161.533 216.41ZM159.23 219.152L157.885 217.672L157.876 217.681L159.23 219.152ZM156.242 221.209L155.348 219.42L153.319 220.435L154.58 222.321L156.242 221.209ZM157.877 206.391L156.039 207.178L156.042 207.186L157.877 206.391ZM156.154 203.842L154.729 205.244L154.74 205.256L154.752 205.267L156.154 203.842ZM153.605 202.119L152.81 203.954L152.818 203.957L153.605 202.119ZM144.816 203.842L146.219 205.267L146.225 205.262L146.231 205.256L144.816 203.842ZM143.094 206.391L144.929 207.186L144.932 207.178L143.094 206.391ZM143.094 212.613L141.259 213.409L141.262 213.417L143.094 212.613ZM153.605 216.867L152.818 215.029L152.81 215.032L153.605 216.867ZM156.154 215.145L154.74 213.73L154.734 213.736L154.729 213.742L156.154 215.145ZM157.877 212.613L159.708 213.417L159.712 213.409L157.877 212.613ZM160.145 225.045H154.414V229.045H160.145V225.045ZM156.078 225.936L153.055 221.4L149.727 223.619L152.75 228.154L156.078 225.936ZM151.108 220.53C151.029 220.541 150.966 220.545 150.916 220.545V224.545C151.171 224.545 151.424 224.525 151.673 224.49L151.108 220.53ZM150.916 220.545C150.916 220.545 150.915 220.545 150.915 220.545C150.915 220.545 150.915 220.545 150.914 220.545C150.914 220.545 150.914 220.545 150.914 220.545C150.913 220.545 150.913 220.545 150.913 220.545C150.912 220.545 150.912 220.545 150.912 220.545C150.912 220.545 150.911 220.545 150.911 220.545C150.911 220.545 150.911 220.545 150.91 220.545C150.91 220.545 150.91 220.545 150.909 220.545C150.909 220.545 150.909 220.545 150.909 220.545C150.908 220.545 150.908 220.545 150.908 220.545C150.908 220.545 150.907 220.545 150.907 220.545C150.907 220.545 150.906 220.545 150.906 220.545C150.906 220.545 150.906 220.545 150.905 220.545C150.905 220.545 150.905 220.545 150.904 220.545C150.904 220.545 150.904 220.545 150.904 220.545C150.903 220.545 150.903 220.545 150.903 220.545C150.903 220.545 150.902 220.545 150.902 220.545C150.902 220.545 150.901 220.545 150.901 220.545C150.901 220.545 150.901 220.545 150.9 220.545C150.9 220.545 150.9 220.545 150.9 220.545C150.899 220.545 150.899 220.545 150.899 220.545C150.898 220.545 150.898 220.545 150.898 220.545C150.898 220.545 150.897 220.545 150.897 220.545C150.897 220.545 150.897 220.545 150.896 220.545C150.896 220.545 150.896 220.545 150.895 220.545C150.895 220.545 150.895 220.545 150.895 220.545C150.894 220.545 150.894 220.545 150.894 220.545C150.893 220.545 150.893 220.545 150.893 220.545C150.893 220.545 150.892 220.545 150.892 220.545C150.892 220.545 150.892 220.545 150.891 220.545C150.891 220.545 150.891 220.545 150.89 220.545C150.89 220.545 150.89 220.545 150.89 220.545C150.889 220.545 150.889 220.545 150.889 220.545C150.889 220.545 150.888 220.545 150.888 220.545C150.888 220.545 150.887 220.545 150.887 220.545C150.887 220.545 150.887 220.545 150.886 220.545C150.886 220.545 150.886 220.545 150.886 220.545C150.885 220.545 150.885 220.545 150.885 220.545C150.884 220.545 150.884 220.545 150.884 220.545C150.884 220.545 150.883 220.545 150.883 220.545C150.883 220.545 150.883 220.545 150.882 220.545C150.882 220.545 150.882 220.545 150.881 220.545C150.881 220.545 150.881 220.545 150.881 220.545C150.88 220.545 150.88 220.545 150.88 220.545C150.879 220.545 150.879 220.545 150.879 220.545C150.879 220.545 150.878 220.545 150.878 220.545C150.878 220.545 150.878 220.545 150.877 220.545C150.877 220.545 150.877 220.545 150.876 220.545C150.876 220.545 150.876 220.545 150.876 220.545C150.875 220.545 150.875 220.545 150.875 220.545C150.875 220.545 150.874 220.545 150.874 220.545C150.874 220.545 150.873 220.545 150.873 220.545C150.873 220.545 150.873 220.545 150.872 220.545C150.872 220.545 150.872 220.545 150.872 220.545C150.871 220.545 150.871 220.545 150.871 220.545C150.87 220.545 150.87 220.545 150.87 220.545C150.87 220.545 150.869 220.545 150.869 220.545C150.869 220.545 150.868 220.545 150.868 220.545C150.868 220.545 150.868 220.545 150.867 220.545C150.867 220.545 150.867 220.545 150.867 220.545C150.866 220.545 150.866 220.545 150.866 220.545C150.865 220.545 150.865 220.545 150.865 220.545C150.865 220.545 150.864 220.545 150.864 220.545C150.864 220.545 150.864 220.545 150.863 220.545C150.863 220.545 150.863 220.545 150.862 220.545C150.862 220.545 150.862 220.545 150.862 220.545C150.861 220.545 150.861 220.545 150.861 220.545C150.861 220.545 150.86 220.545 150.86 220.545C150.86 220.545 150.859 220.545 150.859 220.545C150.859 220.545 150.859 220.545 150.858 220.545C150.858 220.545 150.858 220.545 150.858 220.545C150.857 220.545 150.857 220.545 150.857 220.545C150.856 220.545 150.856 220.545 150.856 220.545C150.856 220.545 150.855 220.545 150.855 220.545C150.855 220.545 150.854 220.545 150.854 220.545C150.854 220.545 150.854 220.545 150.853 220.545C150.853 220.545 150.853 220.545 150.853 220.545C150.852 220.545 150.852 220.545 150.852 220.545C150.851 220.545 150.851 220.545 150.851 220.545C150.851 220.545 150.85 220.545 150.85 220.545C150.85 220.545 150.85 220.545 150.849 220.545C150.849 220.545 150.849 220.545 150.848 220.545C150.848 220.545 150.848 220.545 150.848 220.545C150.847 220.545 150.847 220.545 150.847 220.545C150.847 220.545 150.846 220.545 150.846 220.545C150.846 220.545 150.845 220.545 150.845 220.545C150.845 220.545 150.845 220.545 150.844 220.545C150.844 220.545 150.844 220.545 150.844 220.545C150.843 220.545 150.843 220.545 150.843 220.545C150.842 220.545 150.842 220.545 150.842 220.545C150.842 220.545 150.841 220.545 150.841 220.545C150.841 220.545 150.84 220.545 150.84 220.545C150.84 220.545 150.84 220.545 150.839 220.545C150.839 220.545 150.839 220.545 150.839 220.545C150.838 220.545 150.838 220.545 150.838 220.545C150.837 220.545 150.837 220.545 150.837 220.545C150.837 220.545 150.836 220.545 150.836 220.545C150.836 220.545 150.836 220.545 150.835 220.545C150.835 220.545 150.835 220.545 150.834 220.545C150.834 220.545 150.834 220.545 150.834 220.545C150.833 220.545 150.833 220.545 150.833 220.545C150.833 220.545 150.832 220.545 150.832 220.545C150.832 220.545 150.831 220.545 150.831 220.545C150.831 220.545 150.831 220.545 150.83 220.545C150.83 220.545 150.83 220.545 150.829 220.545C150.829 220.545 150.829 220.545 150.829 220.545C150.828 220.545 150.828 220.545 150.828 220.545C150.828 220.545 150.827 220.545 150.827 220.545C150.827 220.545 150.826 220.545 150.826 220.545C150.826 220.545 150.826 220.545 150.825 220.545C150.825 220.545 150.825 220.545 150.825 220.545C150.824 220.545 150.824 220.545 150.824 220.545C150.823 220.545 150.823 220.545 150.823 220.545C150.823 220.545 150.822 220.545 150.822 220.545C150.822 220.545 150.822 220.545 150.821 220.545C150.821 220.545 150.821 220.545 150.82 220.545C150.82 220.545 150.82 220.545 150.82 220.545C150.819 220.545 150.819 220.545 150.819 220.545C150.819 220.545 150.818 220.545 150.818 220.545C150.818 220.545 150.817 220.545 150.817 220.545C150.817 220.545 150.817 220.545 150.816 220.545C150.816 220.545 150.816 220.545 150.815 220.545C150.815 220.545 150.815 220.545 150.815 220.545C150.814 220.545 150.814 220.545 150.814 220.545C150.814 220.545 150.813 220.545 150.813 220.545C150.813 220.545 150.812 220.545 150.812 220.545C150.812 220.545 150.812 220.545 150.811 220.545C150.811 220.545 150.811 220.545 150.811 220.545C150.81 220.545 150.81 220.545 150.81 220.545C150.809 220.545 150.809 220.545 150.809 220.545C150.809 220.545 150.808 220.545 150.808 220.545C150.808 220.545 150.808 220.545 150.807 220.545C150.807 220.545 150.807 220.545 150.806 220.545C150.806 220.545 150.806 220.545 150.806 220.545C150.805 220.545 150.805 220.545 150.805 220.545C150.805 220.545 150.804 220.545 150.804 220.545C150.804 220.545 150.803 220.545 150.803 220.545C150.803 220.545 150.803 220.545 150.802 220.545C150.802 220.545 150.802 220.545 150.801 220.545C150.801 220.545 150.801 220.545 150.801 220.545C150.8 220.545 150.8 220.545 150.8 220.545C150.8 220.545 150.799 220.545 150.799 220.545C150.799 220.545 150.798 220.545 150.798 220.545C150.798 220.545 150.798 220.545 150.797 220.545C150.797 220.545 150.797 220.545 150.797 220.545C150.796 220.545 150.796 220.545 150.796 220.545C150.795 220.545 150.795 220.545 150.795 220.545C150.795 220.545 150.794 220.545 150.794 220.545C150.794 220.545 150.794 220.545 150.793 220.545C150.793 220.545 150.793 220.545 150.792 220.545C150.792 220.545 150.792 220.545 150.792 220.545C150.791 220.545 150.791 220.545 150.791 220.545C150.79 220.545 150.79 220.545 150.79 220.545C150.79 220.545 150.789 220.545 150.789 220.545C150.789 220.545 150.789 220.545 150.788 220.545C150.788 220.545 150.788 220.545 150.787 220.545C150.787 220.545 150.787 220.545 150.787 220.545C150.786 220.545 150.786 220.545 150.786 220.545C150.786 220.545 150.785 220.545 150.785 220.545C150.785 220.545 150.784 220.545 150.784 220.545C150.784 220.545 150.784 220.545 150.783 220.545C150.783 220.545 150.783 220.545 150.783 220.545C150.782 220.545 150.782 220.545 150.782 220.545C150.781 220.545 150.781 220.545 150.781 220.545C150.781 220.545 150.78 220.545 150.78 220.545C150.78 220.545 150.78 220.545 150.779 220.545C150.779 220.545 150.779 220.545 150.778 220.545C150.778 220.545 150.778 220.545 150.778 220.545C150.777 220.545 150.777 220.545 150.777 220.545C150.776 220.545 150.776 220.545 150.776 220.545C150.776 220.545 150.775 220.545 150.775 220.545C150.775 220.545 150.775 220.545 150.774 220.545C150.774 220.545 150.774 220.545 150.773 220.545C150.773 220.545 150.773 220.545 150.773 220.545C150.772 220.545 150.772 220.545 150.772 220.545C150.772 220.545 150.771 220.545 150.771 220.545C150.771 220.545 150.77 220.545 150.77 220.545C150.77 220.545 150.77 220.545 150.769 220.545C150.769 220.545 150.769 220.545 150.769 220.545C150.768 220.545 150.768 220.545 150.768 220.545C150.767 220.545 150.767 220.545 150.767 220.545C150.767 220.545 150.766 220.545 150.766 220.545C150.766 220.545 150.766 220.545 150.765 220.545C150.765 220.545 150.765 220.545 150.764 220.545C150.764 220.545 150.764 220.545 150.764 220.545C150.763 220.545 150.763 220.545 150.763 220.545C150.762 220.545 150.762 220.545 150.762 220.545C150.762 220.545 150.761 220.545 150.761 220.545C150.761 220.545 150.761 220.545 150.76 220.545C150.76 220.545 150.76 220.545 150.759 220.545C150.759 220.545 150.759 220.545 150.759 220.545C150.758 220.545 150.758 220.545 150.758 220.545C150.758 220.545 150.757 220.545 150.757 220.545C150.757 220.545 150.756 220.545 150.756 220.545C150.756 220.545 150.756 220.545 150.755 220.545C150.755 220.545 150.755 220.545 150.755 220.545C150.754 220.545 150.754 220.545 150.754 220.545C150.753 220.545 150.753 220.545 150.753 220.545C150.753 220.545 150.752 220.545 150.752 220.545C150.752 220.545 150.751 220.545 150.751 220.545C150.751 220.545 150.751 220.545 150.75 220.545C150.75 220.545 150.75 220.545 150.75 220.545C150.749 220.545 150.749 220.545 150.749 220.545C150.748 220.545 150.748 220.545 150.748 220.545C150.748 220.545 150.747 220.545 150.747 220.545C150.747 220.545 150.747 220.545 150.746 220.545C150.746 220.545 150.746 220.545 150.745 220.545C150.745 220.545 150.745 220.545 150.745 220.545C150.744 220.545 150.744 220.545 150.744 220.545C150.744 220.545 150.743 220.545 150.743 220.545C150.743 220.545 150.742 220.545 150.742 220.545C150.742 220.545 150.742 220.545 150.741 220.545C150.741 220.545 150.741 220.545 150.741 220.545C150.74 220.545 150.74 220.545 150.74 220.545C150.739 220.545 150.739 220.545 150.739 220.545C150.739 220.545 150.738 220.545 150.738 220.545C150.738 220.545 150.737 220.545 150.737 220.545C150.737 220.545 150.737 220.545 150.736 220.545C150.736 220.545 150.736 220.545 150.736 220.545C150.735 220.545 150.735 220.545 150.735 220.545C150.734 220.545 150.734 220.545 150.734 220.545C150.734 220.545 150.733 220.545 150.733 220.545C150.733 220.545 150.733 220.545 150.732 220.545C150.732 220.545 150.732 220.545 150.731 220.545C150.731 220.545 150.731 220.545 150.731 220.545C150.73 220.545 150.73 220.545 150.73 220.545C150.73 220.545 150.729 220.545 150.729 220.545C150.729 220.545 150.728 220.545 150.728 220.545C150.728 220.545 150.728 220.545 150.727 220.545C150.727 220.545 150.727 220.545 150.727 220.545C150.726 220.545 150.726 220.545 150.726 220.545C150.725 220.545 150.725 220.545 150.725 220.545C150.725 220.545 150.724 220.545 150.724 220.545C150.724 220.545 150.723 220.545 150.723 220.545C150.723 220.545 150.723 220.545 150.722 220.545C150.722 220.545 150.722 220.545 150.722 220.545C150.721 220.545 150.721 220.545 150.721 220.545C150.72 220.545 150.72 220.545 150.72 220.545C150.72 220.545 150.719 220.545 150.719 220.545C150.719 220.545 150.719 220.545 150.718 220.545C150.718 220.545 150.718 220.545 150.717 220.545C150.717 220.545 150.717 220.545 150.717 220.545C150.716 220.545 150.716 220.545 150.716 220.545C150.716 220.545 150.715 220.545 150.715 220.545C150.715 220.545 150.714 220.545 150.714 220.545C150.714 220.545 150.714 220.545 150.713 220.545C150.713 220.545 150.713 220.545 150.712 220.545C150.712 220.545 150.712 220.545 150.712 220.545C150.711 220.545 150.711 220.545 150.711 220.545C150.711 220.545 150.71 220.545 150.71 220.545C150.71 220.545 150.709 220.545 150.709 220.545C150.709 220.545 150.709 220.545 150.708 220.545C150.708 220.545 150.708 220.545 150.708 220.545C150.707 220.545 150.707 220.545 150.707 220.545C150.706 220.545 150.706 220.545 150.706 220.545C150.706 220.545 150.705 220.545 150.705 220.545C150.705 220.545 150.705 220.545 150.704 220.545C150.704 220.545 150.704 220.545 150.703 220.545C150.703 220.545 150.703 220.545 150.703 220.545C150.702 220.545 150.702 220.545 150.702 220.545C150.702 220.545 150.701 220.545 150.701 220.545C150.701 220.545 150.7 220.545 150.7 220.545C150.7 220.545 150.7 220.545 150.699 220.545C150.699 220.545 150.699 220.545 150.698 220.545C150.698 220.545 150.698 220.545 150.698 220.545C150.697 220.545 150.697 220.545 150.697 220.545C150.697 220.545 150.696 220.545 150.696 220.545C150.696 220.545 150.695 220.545 150.695 220.545C150.695 220.545 150.695 220.545 150.694 220.545C150.694 220.545 150.694 220.545 150.694 220.545C150.693 220.545 150.693 220.545 150.693 220.545C150.692 220.545 150.692 220.545 150.692 220.545C150.692 220.545 150.691 220.545 150.691 220.545C150.691 220.545 150.691 220.545 150.69 220.545C150.69 220.545 150.69 220.545 150.689 220.545C150.689 220.545 150.689 220.545 150.689 220.545C150.688 220.545 150.688 220.545 150.688 220.545C150.688 220.545 150.687 220.545 150.687 220.545C150.687 220.545 150.686 220.545 150.686 220.545C150.686 220.545 150.686 220.545 150.685 220.545C150.685 220.545 150.685 220.545 150.684 220.545C150.684 220.545 150.684 220.545 150.684 220.545C150.683 220.545 150.683 220.545 150.683 220.545C150.683 220.545 150.682 220.545 150.682 220.545C150.682 220.545 150.681 220.545 150.681 220.545C150.681 220.545 150.681 220.545 150.68 220.545C150.68 220.545 150.68 220.545 150.68 220.545C150.679 220.545 150.679 220.545 150.679 220.545C150.678 220.545 150.678 220.545 150.678 220.545C150.678 220.545 150.677 220.545 150.677 220.545C150.677 220.545 150.677 220.545 150.676 220.545C150.676 220.545 150.676 220.545 150.675 220.545C150.675 220.545 150.675 220.545 150.675 220.545C150.674 220.545 150.674 220.545 150.674 220.545C150.673 220.545 150.673 220.545 150.673 220.545C150.673 220.545 150.672 220.545 150.672 220.545C150.672 220.545 150.672 220.545 150.671 220.545C150.671 220.545 150.671 220.545 150.67 220.545C150.67 220.545 150.67 220.545 150.67 220.545C150.669 220.545 150.669 220.545 150.669 220.545C150.669 220.545 150.668 220.545 150.668 220.545C150.668 220.545 150.667 220.545 150.667 220.545C150.667 220.545 150.667 220.545 150.666 220.545C150.666 220.545 150.666 220.545 150.666 220.545C150.665 220.545 150.665 220.545 150.665 220.545C150.664 220.545 150.664 220.545 150.664 220.545C150.664 220.545 150.663 220.545 150.663 220.545C150.663 220.545 150.663 220.545 150.662 220.545C150.662 220.545 150.662 220.545 150.661 220.545C150.661 220.545 150.661 220.545 150.661 220.545C150.66 220.545 150.66 220.545 150.66 220.545C150.659 220.545 150.659 220.545 150.659 220.545C150.659 220.545 150.658 220.545 150.658 220.545C150.658 220.545 150.658 220.545 150.657 220.545C150.657 220.545 150.657 220.545 150.656 220.545C150.656 220.545 150.656 220.545 150.656 220.545C150.655 220.545 150.655 220.545 150.655 220.545C150.655 220.545 150.654 220.545 150.654 220.545C150.654 220.545 150.653 220.545 150.653 220.545C150.653 220.545 150.653 220.545 150.652 220.545C150.652 220.545 150.652 220.545 150.652 220.545C150.651 220.545 150.651 220.545 150.651 220.545C150.65 220.545 150.65 220.545 150.65 220.545C150.65 220.545 150.649 220.545 150.649 220.545C150.649 220.545 150.648 220.545 150.648 220.545C150.648 220.545 150.648 220.545 150.647 220.545C150.647 220.545 150.647 220.545 150.647 220.545C150.646 220.545 150.646 220.545 150.646 220.545C150.645 220.545 150.645 220.545 150.645 220.545C150.645 220.545 150.644 220.545 150.644 220.545C150.644 220.545 150.644 220.545 150.643 220.545C150.643 220.545 150.643 220.545 150.642 220.545C150.642 220.545 150.642 220.545 150.642 220.545C150.641 220.545 150.641 220.545 150.641 220.545C150.641 220.545 150.64 220.545 150.64 220.545C150.64 220.545 150.639 220.545 150.639 220.545C150.639 220.545 150.639 220.545 150.638 220.545C150.638 220.545 150.638 220.545 150.638 220.545C150.637 220.545 150.637 220.545 150.637 220.545C150.636 220.545 150.636 220.545 150.636 220.545C150.636 220.545 150.635 220.545 150.635 220.545C150.635 220.545 150.634 220.545 150.634 220.545C150.634 220.545 150.634 220.545 150.633 220.545C150.633 220.545 150.633 220.545 150.633 220.545C150.632 220.545 150.632 220.545 150.632 220.545C150.631 220.545 150.631 220.545 150.631 220.545C150.631 220.545 150.63 220.545 150.63 220.545C150.63 220.545 150.63 220.545 150.629 220.545C150.629 220.545 150.629 220.545 150.628 220.545C150.628 220.545 150.628 220.545 150.628 220.545C150.627 220.545 150.627 220.545 150.627 220.545C150.627 220.545 150.626 220.545 150.626 220.545C150.626 220.545 150.625 220.545 150.625 220.545C150.625 220.545 150.625 220.545 150.624 220.545C150.624 220.545 150.624 220.545 150.624 220.545C150.623 220.545 150.623 220.545 150.623 220.545C150.622 220.545 150.622 220.545 150.622 220.545C150.622 220.545 150.621 220.545 150.621 220.545C150.621 220.545 150.62 220.545 150.62 220.545C150.62 220.545 150.62 220.545 150.619 220.545C150.619 220.545 150.619 220.545 150.619 220.545C150.618 220.545 150.618 220.545 150.618 220.545C150.617 220.545 150.617 220.545 150.617 220.545C150.617 220.545 150.616 220.545 150.616 220.545C150.616 220.545 150.616 220.545 150.615 220.545C150.615 220.545 150.615 220.545 150.614 220.545C150.614 220.545 150.614 220.545 150.614 220.545C150.613 220.545 150.613 220.545 150.613 220.545C150.613 220.545 150.612 220.545 150.612 220.545C150.612 220.545 150.611 220.545 150.611 220.545C150.611 220.545 150.611 220.545 150.61 220.545C150.61 220.545 150.61 220.545 150.609 220.545C150.609 220.545 150.609 220.545 150.609 220.545C150.608 220.545 150.608 220.545 150.608 220.545C150.608 220.545 150.607 220.545 150.607 220.545C150.607 220.545 150.606 220.545 150.606 220.545C150.606 220.545 150.606 220.545 150.605 220.545C150.605 220.545 150.605 220.545 150.605 220.545C150.604 220.545 150.604 220.545 150.604 220.545C150.603 220.545 150.603 220.545 150.603 220.545C150.603 220.545 150.602 220.545 150.602 220.545C150.602 220.545 150.602 220.545 150.601 220.545C150.601 220.545 150.601 220.545 150.6 220.545C150.6 220.545 150.6 220.545 150.6 220.545C150.599 220.545 150.599 220.545 150.599 220.545C150.599 220.545 150.598 220.545 150.598 220.545C150.598 220.545 150.597 220.545 150.597 220.545C150.597 220.545 150.597 220.545 150.596 220.545C150.596 220.545 150.596 220.545 150.595 220.545C150.595 220.545 150.595 220.545 150.595 220.545C150.594 220.545 150.594 220.545 150.594 220.545C150.594 220.545 150.593 220.545 150.593 220.545C150.593 220.545 150.592 220.545 150.592 220.545C150.592 220.545 150.592 220.545 150.591 220.545C150.591 220.545 150.591 220.545 150.591 220.545C150.59 220.545 150.59 220.545 150.59 220.545C150.589 220.545 150.589 220.545 150.589 220.545C150.589 220.545 150.588 220.545 150.588 220.545C150.588 220.545 150.588 220.545 150.587 220.545C150.587 220.545 150.587 220.545 150.586 220.545C150.586 220.545 150.586 220.545 150.586 220.545C150.585 220.545 150.585 220.545 150.585 220.545C150.585 220.545 150.584 220.545 150.584 220.545C150.584 220.545 150.583 220.545 150.583 220.545C150.583 220.545 150.583 220.545 150.582 220.545C150.582 220.545 150.582 220.545 150.581 220.545C150.581 220.545 150.581 220.545 150.581 220.545C150.58 220.545 150.58 220.545 150.58 220.545C150.58 220.545 150.579 220.545 150.579 220.545C150.579 220.545 150.578 220.545 150.578 220.545C150.578 220.545 150.578 220.545 150.577 220.545C150.577 220.545 150.577 220.545 150.577 220.545C150.576 220.545 150.576 220.545 150.576 220.545C150.575 220.545 150.575 220.545 150.575 220.545C150.575 220.545 150.574 220.545 150.574 220.545C150.574 220.545 150.574 220.545 150.573 220.545C150.573 220.545 150.573 220.545 150.572 220.545C150.572 220.545 150.572 220.545 150.572 220.545C150.571 220.545 150.571 220.545 150.571 220.545C150.57 220.545 150.57 220.545 150.57 220.545C150.57 220.545 150.569 220.545 150.569 220.545C150.569 220.545 150.569 220.545 150.568 220.545C150.568 220.545 150.568 220.545 150.567 220.545C150.567 220.545 150.567 220.545 150.567 220.545C150.566 220.545 150.566 220.545 150.566 220.545C150.566 220.545 150.565 220.545 150.565 220.545C150.565 220.545 150.564 220.545 150.564 220.545C150.564 220.545 150.564 220.545 150.563 220.545C150.563 220.545 150.563 220.545 150.563 220.545C150.562 220.545 150.562 220.545 150.562 220.545C150.561 220.545 150.561 220.545 150.561 220.545C150.561 220.545 150.56 220.545 150.56 220.545C150.56 220.545 150.56 220.545 150.559 220.545C150.559 220.545 150.559 220.545 150.558 220.545C150.558 220.545 150.558 220.545 150.558 220.545C150.557 220.545 150.557 220.545 150.557 220.545C150.556 220.545 150.556 220.545 150.556 220.545C150.556 220.545 150.555 220.545 150.555 220.545C150.555 220.545 150.555 220.545 150.554 220.545C150.554 220.545 150.554 220.545 150.553 220.545C150.553 220.545 150.553 220.545 150.553 220.545C150.552 220.545 150.552 220.545 150.552 220.545C150.552 220.545 150.551 220.545 150.551 220.545C150.551 220.545 150.55 220.545 150.55 220.545C150.55 220.545 150.55 220.545 150.549 220.545C150.549 220.545 150.549 220.545 150.549 220.545C150.548 220.545 150.548 220.545 150.548 220.545C150.547 220.545 150.547 220.545 150.547 220.545C150.547 220.545 150.546 220.545 150.546 220.545C150.546 220.545 150.546 220.545 150.545 220.545C150.545 220.545 150.545 220.545 150.544 220.545C150.544 220.545 150.544 220.545 150.544 220.545C150.543 220.545 150.543 220.545 150.543 220.545C150.542 220.545 150.542 220.545 150.542 220.545C150.542 220.545 150.541 220.545 150.541 220.545C150.541 220.545 150.541 220.545 150.54 220.545C150.54 220.545 150.54 220.545 150.539 220.545C150.539 220.545 150.539 220.545 150.539 220.545C150.538 220.545 150.538 220.545 150.538 220.545C150.538 220.545 150.537 220.545 150.537 220.545C150.537 220.545 150.536 220.545 150.536 220.545C150.536 220.545 150.536 220.545 150.535 220.545C150.535 220.545 150.535 220.545 150.535 220.545C150.534 220.545 150.534 220.545 150.534 220.545C150.533 220.545 150.533 220.545 150.533 220.545C150.533 220.545 150.532 220.545 150.532 220.545C150.532 220.545 150.531 220.545 150.531 220.545C150.531 220.545 150.531 220.545 150.53 220.545C150.53 220.545 150.53 220.545 150.53 220.545C150.529 220.545 150.529 220.545 150.529 220.545C150.528 220.545 150.528 220.545 150.528 220.545C150.528 220.545 150.527 220.545 150.527 220.545C150.527 220.545 150.527 220.545 150.526 220.545C150.526 220.545 150.526 220.545 150.525 220.545C150.525 220.545 150.525 220.545 150.525 220.545C150.524 220.545 150.524 220.545 150.524 220.545C150.524 220.545 150.523 220.545 150.523 220.545C150.523 220.545 150.522 220.545 150.522 220.545C150.522 220.545 150.522 220.545 150.521 220.545C150.521 220.545 150.521 220.545 150.521 220.545C150.52 220.545 150.52 220.545 150.52 220.545C150.519 220.545 150.519 220.545 150.519 220.545C150.519 220.545 150.518 220.545 150.518 220.545C150.518 220.545 150.517 220.545 150.517 220.545C150.517 220.545 150.517 220.545 150.516 220.545C150.516 220.545 150.516 220.545 150.516 220.545C150.515 220.545 150.515 220.545 150.515 220.545C150.514 220.545 150.514 220.545 150.514 220.545C150.514 220.545 150.513 220.545 150.513 220.545C150.513 220.545 150.513 220.545 150.512 220.545C150.512 220.545 150.512 220.545 150.511 220.545C150.511 220.545 150.511 220.545 150.511 220.545C150.51 220.545 150.51 220.545 150.51 220.545C150.51 220.545 150.509 220.545 150.509 220.545C150.509 220.545 150.508 220.545 150.508 220.545C150.508 220.545 150.508 220.545 150.507 220.545C150.507 220.545 150.507 220.545 150.507 220.545C150.506 220.545 150.506 220.545 150.506 220.545C150.505 220.545 150.505 220.545 150.505 220.545C150.505 220.545 150.504 220.545 150.504 220.545C150.504 220.545 150.503 220.545 150.503 220.545C150.503 220.545 150.503 220.545 150.502 220.545C150.502 220.545 150.502 220.545 150.502 220.545C150.501 220.545 150.501 220.545 150.501 220.545C150.5 220.545 150.5 220.545 150.5 220.545C150.5 220.545 150.499 220.545 150.499 220.545C150.499 220.545 150.499 220.545 150.498 220.545C150.498 220.545 150.498 220.545 150.497 220.545C150.497 220.545 150.497 220.545 150.497 220.545C150.496 220.545 150.496 220.545 150.496 220.545C150.496 220.545 150.495 220.545 150.495 220.545C150.495 220.545 150.494 220.545 150.494 220.545V224.545C150.494 224.545 150.495 224.545 150.495 224.545C150.495 224.545 150.496 224.545 150.496 224.545C150.496 224.545 150.496 224.545 150.497 224.545C150.497 224.545 150.497 224.545 150.497 224.545C150.498 224.545 150.498 224.545 150.498 224.545C150.499 224.545 150.499 224.545 150.499 224.545C150.499 224.545 150.5 224.545 150.5 224.545C150.5 224.545 150.5 224.545 150.501 224.545C150.501 224.545 150.501 224.545 150.502 224.545C150.502 224.545 150.502 224.545 150.502 224.545C150.503 224.545 150.503 224.545 150.503 224.545C150.503 224.545 150.504 224.545 150.504 224.545C150.504 224.545 150.505 224.545 150.505 224.545C150.505 224.545 150.505 224.545 150.506 224.545C150.506 224.545 150.506 224.545 150.507 224.545C150.507 224.545 150.507 224.545 150.507 224.545C150.508 224.545 150.508 224.545 150.508 224.545C150.508 224.545 150.509 224.545 150.509 224.545C150.509 224.545 150.51 224.545 150.51 224.545C150.51 224.545 150.51 224.545 150.511 224.545C150.511 224.545 150.511 224.545 150.511 224.545C150.512 224.545 150.512 224.545 150.512 224.545C150.513 224.545 150.513 224.545 150.513 224.545C150.513 224.545 150.514 224.545 150.514 224.545C150.514 224.545 150.514 224.545 150.515 224.545C150.515 224.545 150.515 224.545 150.516 224.545C150.516 224.545 150.516 224.545 150.516 224.545C150.517 224.545 150.517 224.545 150.517 224.545C150.517 224.545 150.518 224.545 150.518 224.545C150.518 224.545 150.519 224.545 150.519 224.545C150.519 224.545 150.519 224.545 150.52 224.545C150.52 224.545 150.52 224.545 150.521 224.545C150.521 224.545 150.521 224.545 150.521 224.545C150.522 224.545 150.522 224.545 150.522 224.545C150.522 224.545 150.523 224.545 150.523 224.545C150.523 224.545 150.524 224.545 150.524 224.545C150.524 224.545 150.524 224.545 150.525 224.545C150.525 224.545 150.525 224.545 150.525 224.545C150.526 224.545 150.526 224.545 150.526 224.545C150.527 224.545 150.527 224.545 150.527 224.545C150.527 224.545 150.528 224.545 150.528 224.545C150.528 224.545 150.528 224.545 150.529 224.545C150.529 224.545 150.529 224.545 150.53 224.545C150.53 224.545 150.53 224.545 150.53 224.545C150.531 224.545 150.531 224.545 150.531 224.545C150.531 224.545 150.532 224.545 150.532 224.545C150.532 224.545 150.533 224.545 150.533 224.545C150.533 224.545 150.533 224.545 150.534 224.545C150.534 224.545 150.534 224.545 150.535 224.545C150.535 224.545 150.535 224.545 150.535 224.545C150.536 224.545 150.536 224.545 150.536 224.545C150.536 224.545 150.537 224.545 150.537 224.545C150.537 224.545 150.538 224.545 150.538 224.545C150.538 224.545 150.538 224.545 150.539 224.545C150.539 224.545 150.539 224.545 150.539 224.545C150.54 224.545 150.54 224.545 150.54 224.545C150.541 224.545 150.541 224.545 150.541 224.545C150.541 224.545 150.542 224.545 150.542 224.545C150.542 224.545 150.542 224.545 150.543 224.545C150.543 224.545 150.543 224.545 150.544 224.545C150.544 224.545 150.544 224.545 150.544 224.545C150.545 224.545 150.545 224.545 150.545 224.545C150.546 224.545 150.546 224.545 150.546 224.545C150.546 224.545 150.547 224.545 150.547 224.545C150.547 224.545 150.547 224.545 150.548 224.545C150.548 224.545 150.548 224.545 150.549 224.545C150.549 224.545 150.549 224.545 150.549 224.545C150.55 224.545 150.55 224.545 150.55 224.545C150.55 224.545 150.551 224.545 150.551 224.545C150.551 224.545 150.552 224.545 150.552 224.545C150.552 224.545 150.552 224.545 150.553 224.545C150.553 224.545 150.553 224.545 150.553 224.545C150.554 224.545 150.554 224.545 150.554 224.545C150.555 224.545 150.555 224.545 150.555 224.545C150.555 224.545 150.556 224.545 150.556 224.545C150.556 224.545 150.556 224.545 150.557 224.545C150.557 224.545 150.557 224.545 150.558 224.545C150.558 224.545 150.558 224.545 150.558 224.545C150.559 224.545 150.559 224.545 150.559 224.545C150.56 224.545 150.56 224.545 150.56 224.545C150.56 224.545 150.561 224.545 150.561 224.545C150.561 224.545 150.561 224.545 150.562 224.545C150.562 224.545 150.562 224.545 150.563 224.545C150.563 224.545 150.563 224.545 150.563 224.545C150.564 224.545 150.564 224.545 150.564 224.545C150.564 224.545 150.565 224.545 150.565 224.545C150.565 224.545 150.566 224.545 150.566 224.545C150.566 224.545 150.566 224.545 150.567 224.545C150.567 224.545 150.567 224.545 150.567 224.545C150.568 224.545 150.568 224.545 150.568 224.545C150.569 224.545 150.569 224.545 150.569 224.545C150.569 224.545 150.57 224.545 150.57 224.545C150.57 224.545 150.57 224.545 150.571 224.545C150.571 224.545 150.571 224.545 150.572 224.545C150.572 224.545 150.572 224.545 150.572 224.545C150.573 224.545 150.573 224.545 150.573 224.545C150.574 224.545 150.574 224.545 150.574 224.545C150.574 224.545 150.575 224.545 150.575 224.545C150.575 224.545 150.575 224.545 150.576 224.545C150.576 224.545 150.576 224.545 150.577 224.545C150.577 224.545 150.577 224.545 150.577 224.545C150.578 224.545 150.578 224.545 150.578 224.545C150.578 224.545 150.579 224.545 150.579 224.545C150.579 224.545 150.58 224.545 150.58 224.545C150.58 224.545 150.58 224.545 150.581 224.545C150.581 224.545 150.581 224.545 150.581 224.545C150.582 224.545 150.582 224.545 150.582 224.545C150.583 224.545 150.583 224.545 150.583 224.545C150.583 224.545 150.584 224.545 150.584 224.545C150.584 224.545 150.585 224.545 150.585 224.545C150.585 224.545 150.585 224.545 150.586 224.545C150.586 224.545 150.586 224.545 150.586 224.545C150.587 224.545 150.587 224.545 150.587 224.545C150.588 224.545 150.588 224.545 150.588 224.545C150.588 224.545 150.589 224.545 150.589 224.545C150.589 224.545 150.589 224.545 150.59 224.545C150.59 224.545 150.59 224.545 150.591 224.545C150.591 224.545 150.591 224.545 150.591 224.545C150.592 224.545 150.592 224.545 150.592 224.545C150.592 224.545 150.593 224.545 150.593 224.545C150.593 224.545 150.594 224.545 150.594 224.545C150.594 224.545 150.594 224.545 150.595 224.545C150.595 224.545 150.595 224.545 150.595 224.545C150.596 224.545 150.596 224.545 150.596 224.545C150.597 224.545 150.597 224.545 150.597 224.545C150.597 224.545 150.598 224.545 150.598 224.545C150.598 224.545 150.599 224.545 150.599 224.545C150.599 224.545 150.599 224.545 150.6 224.545C150.6 224.545 150.6 224.545 150.6 224.545C150.601 224.545 150.601 224.545 150.601 224.545C150.602 224.545 150.602 224.545 150.602 224.545C150.602 224.545 150.603 224.545 150.603 224.545C150.603 224.545 150.603 224.545 150.604 224.545C150.604 224.545 150.604 224.545 150.605 224.545C150.605 224.545 150.605 224.545 150.605 224.545C150.606 224.545 150.606 224.545 150.606 224.545C150.606 224.545 150.607 224.545 150.607 224.545C150.607 224.545 150.608 224.545 150.608 224.545C150.608 224.545 150.608 224.545 150.609 224.545C150.609 224.545 150.609 224.545 150.609 224.545C150.61 224.545 150.61 224.545 150.61 224.545C150.611 224.545 150.611 224.545 150.611 224.545C150.611 224.545 150.612 224.545 150.612 224.545C150.612 224.545 150.613 224.545 150.613 224.545C150.613 224.545 150.613 224.545 150.614 224.545C150.614 224.545 150.614 224.545 150.614 224.545C150.615 224.545 150.615 224.545 150.615 224.545C150.616 224.545 150.616 224.545 150.616 224.545C150.616 224.545 150.617 224.545 150.617 224.545C150.617 224.545 150.617 224.545 150.618 224.545C150.618 224.545 150.618 224.545 150.619 224.545C150.619 224.545 150.619 224.545 150.619 224.545C150.62 224.545 150.62 224.545 150.62 224.545C150.62 224.545 150.621 224.545 150.621 224.545C150.621 224.545 150.622 224.545 150.622 224.545C150.622 224.545 150.622 224.545 150.623 224.545C150.623 224.545 150.623 224.545 150.624 224.545C150.624 224.545 150.624 224.545 150.624 224.545C150.625 224.545 150.625 224.545 150.625 224.545C150.625 224.545 150.626 224.545 150.626 224.545C150.626 224.545 150.627 224.545 150.627 224.545C150.627 224.545 150.627 224.545 150.628 224.545C150.628 224.545 150.628 224.545 150.628 224.545C150.629 224.545 150.629 224.545 150.629 224.545C150.63 224.545 150.63 224.545 150.63 224.545C150.63 224.545 150.631 224.545 150.631 224.545C150.631 224.545 150.631 224.545 150.632 224.545C150.632 224.545 150.632 224.545 150.633 224.545C150.633 224.545 150.633 224.545 150.633 224.545C150.634 224.545 150.634 224.545 150.634 224.545C150.634 224.545 150.635 224.545 150.635 224.545C150.635 224.545 150.636 224.545 150.636 224.545C150.636 224.545 150.636 224.545 150.637 224.545C150.637 224.545 150.637 224.545 150.638 224.545C150.638 224.545 150.638 224.545 150.638 224.545C150.639 224.545 150.639 224.545 150.639 224.545C150.639 224.545 150.64 224.545 150.64 224.545C150.64 224.545 150.641 224.545 150.641 224.545C150.641 224.545 150.641 224.545 150.642 224.545C150.642 224.545 150.642 224.545 150.642 224.545C150.643 224.545 150.643 224.545 150.643 224.545C150.644 224.545 150.644 224.545 150.644 224.545C150.644 224.545 150.645 224.545 150.645 224.545C150.645 224.545 150.645 224.545 150.646 224.545C150.646 224.545 150.646 224.545 150.647 224.545C150.647 224.545 150.647 224.545 150.647 224.545C150.648 224.545 150.648 224.545 150.648 224.545C150.648 224.545 150.649 224.545 150.649 224.545C150.649 224.545 150.65 224.545 150.65 224.545C150.65 224.545 150.65 224.545 150.651 224.545C150.651 224.545 150.651 224.545 150.652 224.545C150.652 224.545 150.652 224.545 150.652 224.545C150.653 224.545 150.653 224.545 150.653 224.545C150.653 224.545 150.654 224.545 150.654 224.545C150.654 224.545 150.655 224.545 150.655 224.545C150.655 224.545 150.655 224.545 150.656 224.545C150.656 224.545 150.656 224.545 150.656 224.545C150.657 224.545 150.657 224.545 150.657 224.545C150.658 224.545 150.658 224.545 150.658 224.545C150.658 224.545 150.659 224.545 150.659 224.545C150.659 224.545 150.659 224.545 150.66 224.545C150.66 224.545 150.66 224.545 150.661 224.545C150.661 224.545 150.661 224.545 150.661 224.545C150.662 224.545 150.662 224.545 150.662 224.545C150.663 224.545 150.663 224.545 150.663 224.545C150.663 224.545 150.664 224.545 150.664 224.545C150.664 224.545 150.664 224.545 150.665 224.545C150.665 224.545 150.665 224.545 150.666 224.545C150.666 224.545 150.666 224.545 150.666 224.545C150.667 224.545 150.667 224.545 150.667 224.545C150.667 224.545 150.668 224.545 150.668 224.545C150.668 224.545 150.669 224.545 150.669 224.545C150.669 224.545 150.669 224.545 150.67 224.545C150.67 224.545 150.67 224.545 150.67 224.545C150.671 224.545 150.671 224.545 150.671 224.545C150.672 224.545 150.672 224.545 150.672 224.545C150.672 224.545 150.673 224.545 150.673 224.545C150.673 224.545 150.673 224.545 150.674 224.545C150.674 224.545 150.674 224.545 150.675 224.545C150.675 224.545 150.675 224.545 150.675 224.545C150.676 224.545 150.676 224.545 150.676 224.545C150.677 224.545 150.677 224.545 150.677 224.545C150.677 224.545 150.678 224.545 150.678 224.545C150.678 224.545 150.678 224.545 150.679 224.545C150.679 224.545 150.679 224.545 150.68 224.545C150.68 224.545 150.68 224.545 150.68 224.545C150.681 224.545 150.681 224.545 150.681 224.545C150.681 224.545 150.682 224.545 150.682 224.545C150.682 224.545 150.683 224.545 150.683 224.545C150.683 224.545 150.683 224.545 150.684 224.545C150.684 224.545 150.684 224.545 150.684 224.545C150.685 224.545 150.685 224.545 150.685 224.545C150.686 224.545 150.686 224.545 150.686 224.545C150.686 224.545 150.687 224.545 150.687 224.545C150.687 224.545 150.688 224.545 150.688 224.545C150.688 224.545 150.688 224.545 150.689 224.545C150.689 224.545 150.689 224.545 150.689 224.545C150.69 224.545 150.69 224.545 150.69 224.545C150.691 224.545 150.691 224.545 150.691 224.545C150.691 224.545 150.692 224.545 150.692 224.545C150.692 224.545 150.692 224.545 150.693 224.545C150.693 224.545 150.693 224.545 150.694 224.545C150.694 224.545 150.694 224.545 150.694 224.545C150.695 224.545 150.695 224.545 150.695 224.545C150.695 224.545 150.696 224.545 150.696 224.545C150.696 224.545 150.697 224.545 150.697 224.545C150.697 224.545 150.697 224.545 150.698 224.545C150.698 224.545 150.698 224.545 150.698 224.545C150.699 224.545 150.699 224.545 150.699 224.545C150.7 224.545 150.7 224.545 150.7 224.545C150.7 224.545 150.701 224.545 150.701 224.545C150.701 224.545 150.702 224.545 150.702 224.545C150.702 224.545 150.702 224.545 150.703 224.545C150.703 224.545 150.703 224.545 150.703 224.545C150.704 224.545 150.704 224.545 150.704 224.545C150.705 224.545 150.705 224.545 150.705 224.545C150.705 224.545 150.706 224.545 150.706 224.545C150.706 224.545 150.706 224.545 150.707 224.545C150.707 224.545 150.707 224.545 150.708 224.545C150.708 224.545 150.708 224.545 150.708 224.545C150.709 224.545 150.709 224.545 150.709 224.545C150.709 224.545 150.71 224.545 150.71 224.545C150.71 224.545 150.711 224.545 150.711 224.545C150.711 224.545 150.711 224.545 150.712 224.545C150.712 224.545 150.712 224.545 150.712 224.545C150.713 224.545 150.713 224.545 150.713 224.545C150.714 224.545 150.714 224.545 150.714 224.545C150.714 224.545 150.715 224.545 150.715 224.545C150.715 224.545 150.716 224.545 150.716 224.545C150.716 224.545 150.716 224.545 150.717 224.545C150.717 224.545 150.717 224.545 150.717 224.545C150.718 224.545 150.718 224.545 150.718 224.545C150.719 224.545 150.719 224.545 150.719 224.545C150.719 224.545 150.72 224.545 150.72 224.545C150.72 224.545 150.72 224.545 150.721 224.545C150.721 224.545 150.721 224.545 150.722 224.545C150.722 224.545 150.722 224.545 150.722 224.545C150.723 224.545 150.723 224.545 150.723 224.545C150.723 224.545 150.724 224.545 150.724 224.545C150.724 224.545 150.725 224.545 150.725 224.545C150.725 224.545 150.725 224.545 150.726 224.545C150.726 224.545 150.726 224.545 150.727 224.545C150.727 224.545 150.727 224.545 150.727 224.545C150.728 224.545 150.728 224.545 150.728 224.545C150.728 224.545 150.729 224.545 150.729 224.545C150.729 224.545 150.73 224.545 150.73 224.545C150.73 224.545 150.73 224.545 150.731 224.545C150.731 224.545 150.731 224.545 150.731 224.545C150.732 224.545 150.732 224.545 150.732 224.545C150.733 224.545 150.733 224.545 150.733 224.545C150.733 224.545 150.734 224.545 150.734 224.545C150.734 224.545 150.734 224.545 150.735 224.545C150.735 224.545 150.735 224.545 150.736 224.545C150.736 224.545 150.736 224.545 150.736 224.545C150.737 224.545 150.737 224.545 150.737 224.545C150.737 224.545 150.738 224.545 150.738 224.545C150.738 224.545 150.739 224.545 150.739 224.545C150.739 224.545 150.739 224.545 150.74 224.545C150.74 224.545 150.74 224.545 150.741 224.545C150.741 224.545 150.741 224.545 150.741 224.545C150.742 224.545 150.742 224.545 150.742 224.545C150.742 224.545 150.743 224.545 150.743 224.545C150.743 224.545 150.744 224.545 150.744 224.545C150.744 224.545 150.744 224.545 150.745 224.545C150.745 224.545 150.745 224.545 150.745 224.545C150.746 224.545 150.746 224.545 150.746 224.545C150.747 224.545 150.747 224.545 150.747 224.545C150.747 224.545 150.748 224.545 150.748 224.545C150.748 224.545 150.748 224.545 150.749 224.545C150.749 224.545 150.749 224.545 150.75 224.545C150.75 224.545 150.75 224.545 150.75 224.545C150.751 224.545 150.751 224.545 150.751 224.545C150.751 224.545 150.752 224.545 150.752 224.545C150.752 224.545 150.753 224.545 150.753 224.545C150.753 224.545 150.753 224.545 150.754 224.545C150.754 224.545 150.754 224.545 150.755 224.545C150.755 224.545 150.755 224.545 150.755 224.545C150.756 224.545 150.756 224.545 150.756 224.545C150.756 224.545 150.757 224.545 150.757 224.545C150.757 224.545 150.758 224.545 150.758 224.545C150.758 224.545 150.758 224.545 150.759 224.545C150.759 224.545 150.759 224.545 150.759 224.545C150.76 224.545 150.76 224.545 150.76 224.545C150.761 224.545 150.761 224.545 150.761 224.545C150.761 224.545 150.762 224.545 150.762 224.545C150.762 224.545 150.762 224.545 150.763 224.545C150.763 224.545 150.763 224.545 150.764 224.545C150.764 224.545 150.764 224.545 150.764 224.545C150.765 224.545 150.765 224.545 150.765 224.545C150.766 224.545 150.766 224.545 150.766 224.545C150.766 224.545 150.767 224.545 150.767 224.545C150.767 224.545 150.767 224.545 150.768 224.545C150.768 224.545 150.768 224.545 150.769 224.545C150.769 224.545 150.769 224.545 150.769 224.545C150.77 224.545 150.77 224.545 150.77 224.545C150.77 224.545 150.771 224.545 150.771 224.545C150.771 224.545 150.772 224.545 150.772 224.545C150.772 224.545 150.772 224.545 150.773 224.545C150.773 224.545 150.773 224.545 150.773 224.545C150.774 224.545 150.774 224.545 150.774 224.545C150.775 224.545 150.775 224.545 150.775 224.545C150.775 224.545 150.776 224.545 150.776 224.545C150.776 224.545 150.776 224.545 150.777 224.545C150.777 224.545 150.777 224.545 150.778 224.545C150.778 224.545 150.778 224.545 150.778 224.545C150.779 224.545 150.779 224.545 150.779 224.545C150.78 224.545 150.78 224.545 150.78 224.545C150.78 224.545 150.781 224.545 150.781 224.545C150.781 224.545 150.781 224.545 150.782 224.545C150.782 224.545 150.782 224.545 150.783 224.545C150.783 224.545 150.783 224.545 150.783 224.545C150.784 224.545 150.784 224.545 150.784 224.545C150.784 224.545 150.785 224.545 150.785 224.545C150.785 224.545 150.786 224.545 150.786 224.545C150.786 224.545 150.786 224.545 150.787 224.545C150.787 224.545 150.787 224.545 150.787 224.545C150.788 224.545 150.788 224.545 150.788 224.545C150.789 224.545 150.789 224.545 150.789 224.545C150.789 224.545 150.79 224.545 150.79 224.545C150.79 224.545 150.79 224.545 150.791 224.545C150.791 224.545 150.791 224.545 150.792 224.545C150.792 224.545 150.792 224.545 150.792 224.545C150.793 224.545 150.793 224.545 150.793 224.545C150.794 224.545 150.794 224.545 150.794 224.545C150.794 224.545 150.795 224.545 150.795 224.545C150.795 224.545 150.795 224.545 150.796 224.545C150.796 224.545 150.796 224.545 150.797 224.545C150.797 224.545 150.797 224.545 150.797 224.545C150.798 224.545 150.798 224.545 150.798 224.545C150.798 224.545 150.799 224.545 150.799 224.545C150.799 224.545 150.8 224.545 150.8 224.545C150.8 224.545 150.8 224.545 150.801 224.545C150.801 224.545 150.801 224.545 150.801 224.545C150.802 224.545 150.802 224.545 150.802 224.545C150.803 224.545 150.803 224.545 150.803 224.545C150.803 224.545 150.804 224.545 150.804 224.545C150.804 224.545 150.805 224.545 150.805 224.545C150.805 224.545 150.805 224.545 150.806 224.545C150.806 224.545 150.806 224.545 150.806 224.545C150.807 224.545 150.807 224.545 150.807 224.545C150.808 224.545 150.808 224.545 150.808 224.545C150.808 224.545 150.809 224.545 150.809 224.545C150.809 224.545 150.809 224.545 150.81 224.545C150.81 224.545 150.81 224.545 150.811 224.545C150.811 224.545 150.811 224.545 150.811 224.545C150.812 224.545 150.812 224.545 150.812 224.545C150.812 224.545 150.813 224.545 150.813 224.545C150.813 224.545 150.814 224.545 150.814 224.545C150.814 224.545 150.814 224.545 150.815 224.545C150.815 224.545 150.815 224.545 150.815 224.545C150.816 224.545 150.816 224.545 150.816 224.545C150.817 224.545 150.817 224.545 150.817 224.545C150.817 224.545 150.818 224.545 150.818 224.545C150.818 224.545 150.819 224.545 150.819 224.545C150.819 224.545 150.819 224.545 150.82 224.545C150.82 224.545 150.82 224.545 150.82 224.545C150.821 224.545 150.821 224.545 150.821 224.545C150.822 224.545 150.822 224.545 150.822 224.545C150.822 224.545 150.823 224.545 150.823 224.545C150.823 224.545 150.823 224.545 150.824 224.545C150.824 224.545 150.824 224.545 150.825 224.545C150.825 224.545 150.825 224.545 150.825 224.545C150.826 224.545 150.826 224.545 150.826 224.545C150.826 224.545 150.827 224.545 150.827 224.545C150.827 224.545 150.828 224.545 150.828 224.545C150.828 224.545 150.828 224.545 150.829 224.545C150.829 224.545 150.829 224.545 150.829 224.545C150.83 224.545 150.83 224.545 150.83 224.545C150.831 224.545 150.831 224.545 150.831 224.545C150.831 224.545 150.832 224.545 150.832 224.545C150.832 224.545 150.833 224.545 150.833 224.545C150.833 224.545 150.833 224.545 150.834 224.545C150.834 224.545 150.834 224.545 150.834 224.545C150.835 224.545 150.835 224.545 150.835 224.545C150.836 224.545 150.836 224.545 150.836 224.545C150.836 224.545 150.837 224.545 150.837 224.545C150.837 224.545 150.837 224.545 150.838 224.545C150.838 224.545 150.838 224.545 150.839 224.545C150.839 224.545 150.839 224.545 150.839 224.545C150.84 224.545 150.84 224.545 150.84 224.545C150.84 224.545 150.841 224.545 150.841 224.545C150.841 224.545 150.842 224.545 150.842 224.545C150.842 224.545 150.842 224.545 150.843 224.545C150.843 224.545 150.843 224.545 150.844 224.545C150.844 224.545 150.844 224.545 150.844 224.545C150.845 224.545 150.845 224.545 150.845 224.545C150.845 224.545 150.846 224.545 150.846 224.545C150.846 224.545 150.847 224.545 150.847 224.545C150.847 224.545 150.847 224.545 150.848 224.545C150.848 224.545 150.848 224.545 150.848 224.545C150.849 224.545 150.849 224.545 150.849 224.545C150.85 224.545 150.85 224.545 150.85 224.545C150.85 224.545 150.851 224.545 150.851 224.545C150.851 224.545 150.851 224.545 150.852 224.545C150.852 224.545 150.852 224.545 150.853 224.545C150.853 224.545 150.853 224.545 150.853 224.545C150.854 224.545 150.854 224.545 150.854 224.545C150.854 224.545 150.855 224.545 150.855 224.545C150.855 224.545 150.856 224.545 150.856 224.545C150.856 224.545 150.856 224.545 150.857 224.545C150.857 224.545 150.857 224.545 150.858 224.545C150.858 224.545 150.858 224.545 150.858 224.545C150.859 224.545 150.859 224.545 150.859 224.545C150.859 224.545 150.86 224.545 150.86 224.545C150.86 224.545 150.861 224.545 150.861 224.545C150.861 224.545 150.861 224.545 150.862 224.545C150.862 224.545 150.862 224.545 150.862 224.545C150.863 224.545 150.863 224.545 150.863 224.545C150.864 224.545 150.864 224.545 150.864 224.545C150.864 224.545 150.865 224.545 150.865 224.545C150.865 224.545 150.865 224.545 150.866 224.545C150.866 224.545 150.866 224.545 150.867 224.545C150.867 224.545 150.867 224.545 150.867 224.545C150.868 224.545 150.868 224.545 150.868 224.545C150.868 224.545 150.869 224.545 150.869 224.545C150.869 224.545 150.87 224.545 150.87 224.545C150.87 224.545 150.87 224.545 150.871 224.545C150.871 224.545 150.871 224.545 150.872 224.545C150.872 224.545 150.872 224.545 150.872 224.545C150.873 224.545 150.873 224.545 150.873 224.545C150.873 224.545 150.874 224.545 150.874 224.545C150.874 224.545 150.875 224.545 150.875 224.545C150.875 224.545 150.875 224.545 150.876 224.545C150.876 224.545 150.876 224.545 150.876 224.545C150.877 224.545 150.877 224.545 150.877 224.545C150.878 224.545 150.878 224.545 150.878 224.545C150.878 224.545 150.879 224.545 150.879 224.545C150.879 224.545 150.879 224.545 150.88 224.545C150.88 224.545 150.88 224.545 150.881 224.545C150.881 224.545 150.881 224.545 150.881 224.545C150.882 224.545 150.882 224.545 150.882 224.545C150.883 224.545 150.883 224.545 150.883 224.545C150.883 224.545 150.884 224.545 150.884 224.545C150.884 224.545 150.884 224.545 150.885 224.545C150.885 224.545 150.885 224.545 150.886 224.545C150.886 224.545 150.886 224.545 150.886 224.545C150.887 224.545 150.887 224.545 150.887 224.545C150.887 224.545 150.888 224.545 150.888 224.545C150.888 224.545 150.889 224.545 150.889 224.545C150.889 224.545 150.889 224.545 150.89 224.545C150.89 224.545 150.89 224.545 150.89 224.545C150.891 224.545 150.891 224.545 150.891 224.545C150.892 224.545 150.892 224.545 150.892 224.545C150.892 224.545 150.893 224.545 150.893 224.545C150.893 224.545 150.893 224.545 150.894 224.545C150.894 224.545 150.894 224.545 150.895 224.545C150.895 224.545 150.895 224.545 150.895 224.545C150.896 224.545 150.896 224.545 150.896 224.545C150.897 224.545 150.897 224.545 150.897 224.545C150.897 224.545 150.898 224.545 150.898 224.545C150.898 224.545 150.898 224.545 150.899 224.545C150.899 224.545 150.899 224.545 150.9 224.545C150.9 224.545 150.9 224.545 150.9 224.545C150.901 224.545 150.901 224.545 150.901 224.545C150.901 224.545 150.902 224.545 150.902 224.545C150.902 224.545 150.903 224.545 150.903 224.545C150.903 224.545 150.903 224.545 150.904 224.545C150.904 224.545 150.904 224.545 150.904 224.545C150.905 224.545 150.905 224.545 150.905 224.545C150.906 224.545 150.906 224.545 150.906 224.545C150.906 224.545 150.907 224.545 150.907 224.545C150.907 224.545 150.908 224.545 150.908 224.545C150.908 224.545 150.908 224.545 150.909 224.545C150.909 224.545 150.909 224.545 150.909 224.545C150.91 224.545 150.91 224.545 150.91 224.545C150.911 224.545 150.911 224.545 150.911 224.545C150.911 224.545 150.912 224.545 150.912 224.545C150.912 224.545 150.912 224.545 150.913 224.545C150.913 224.545 150.913 224.545 150.914 224.545C150.914 224.545 150.914 224.545 150.914 224.545C150.915 224.545 150.915 224.545 150.915 224.545C150.915 224.545 150.916 224.545 150.916 224.545V220.545ZM150.494 220.545C149.478 220.545 148.508 220.411 147.578 220.147L146.484 223.994C147.781 224.363 149.12 224.545 150.494 224.545V220.545ZM147.564 220.143C146.624 219.883 145.744 219.514 144.921 219.038L142.919 222.501C144.041 223.15 145.236 223.649 146.498 223.998L147.564 220.143ZM144.946 219.053C144.127 218.564 143.379 217.98 142.697 217.299L139.869 220.127C140.782 221.04 141.791 221.827 142.894 222.486L144.946 219.053ZM142.697 217.299C142.016 216.617 141.433 215.869 140.943 215.05L137.51 217.102C138.169 218.205 138.956 219.215 139.869 220.127L142.697 217.299ZM140.958 215.075C140.479 214.246 140.103 213.36 139.83 212.413L135.986 213.517C136.347 214.772 136.849 215.961 137.495 217.077L140.958 215.075ZM139.837 212.437C139.581 211.502 139.451 210.525 139.451 209.502H135.451C135.451 210.869 135.626 212.201 135.979 213.493L139.837 212.437ZM139.451 209.502C139.451 208.479 139.581 207.502 139.837 206.567L135.979 205.511C135.626 206.802 135.451 208.135 135.451 209.502H139.451ZM139.832 206.586C140.104 205.628 140.479 204.748 140.953 203.938L137.501 201.917C136.85 203.03 136.345 204.223 135.984 205.492L139.832 206.586ZM140.943 203.954C141.433 203.135 142.016 202.386 142.697 201.705L139.869 198.877C138.956 199.789 138.169 200.799 137.51 201.902L140.943 203.954ZM142.697 201.705C143.375 201.028 144.119 200.453 144.93 199.978L142.91 196.526C141.799 197.176 140.785 197.961 139.869 198.877L142.697 201.705ZM144.921 199.983C145.744 199.507 146.624 199.139 147.564 198.879L146.498 195.024C145.236 195.373 144.041 195.872 142.919 196.521L144.921 199.983ZM147.578 198.875C148.508 198.611 149.478 198.477 150.494 198.477V194.477C149.12 194.477 147.781 194.659 146.484 195.027L147.578 198.875ZM150.494 198.477C151.511 198.477 152.481 198.611 153.41 198.875L154.504 195.027C153.207 194.659 151.868 194.477 150.494 194.477V198.477ZM153.429 198.88C154.38 199.14 155.254 199.507 156.058 199.978L158.079 196.526C156.961 195.872 155.761 195.371 154.485 195.022L153.429 198.88ZM156.058 199.978C156.87 200.453 157.613 201.028 158.291 201.705L161.119 198.877C160.203 197.961 159.189 197.176 158.079 196.526L156.058 199.978ZM158.291 201.705C158.968 202.383 159.543 203.126 160.018 203.938L163.47 201.917C162.82 200.807 162.035 199.793 161.119 198.877L158.291 201.705ZM160.018 203.938C160.489 204.742 160.856 205.617 161.116 206.567L164.974 205.511C164.625 204.235 164.124 203.035 163.47 201.917L160.018 203.938ZM161.121 206.586C161.385 207.515 161.52 208.485 161.52 209.502H165.52C165.52 208.128 165.337 206.789 164.969 205.492L161.121 206.586ZM161.52 209.502C161.52 210.553 161.371 211.566 161.077 212.548L164.908 213.698C165.316 212.337 165.52 210.936 165.52 209.502H161.52ZM161.071 212.566C160.781 213.566 160.369 214.494 159.834 215.355L163.232 217.465C163.963 216.288 164.523 215.024 164.913 213.68L161.071 212.566ZM159.839 215.347C159.306 216.197 158.656 216.971 157.885 217.672L160.576 220.632C161.609 219.693 162.495 218.639 163.227 217.474L159.839 215.347ZM157.876 217.681C157.125 218.372 156.285 218.952 155.348 219.42L157.137 222.998C158.403 222.365 159.555 221.573 160.585 220.623L157.876 217.681ZM154.58 222.321L158.482 228.157L161.807 225.933L157.905 220.097L154.58 222.321ZM160.51 209.502C160.51 208.138 160.247 206.828 159.712 205.595L156.042 207.186C156.351 207.898 156.51 208.663 156.51 209.502H160.51ZM159.715 205.603C159.196 204.392 158.478 203.322 157.557 202.416L154.752 205.267C155.284 205.791 155.714 206.421 156.039 207.178L159.715 205.603ZM157.58 202.439C156.674 201.518 155.604 200.8 154.393 200.281L152.818 203.957C153.575 204.282 154.205 204.712 154.729 205.244L157.58 202.439ZM154.401 200.284C153.168 199.749 151.859 199.486 150.494 199.486V203.486C151.333 203.486 152.098 203.645 152.81 203.954L154.401 200.284ZM150.494 199.486C149.121 199.486 147.806 199.748 146.569 200.284L148.161 203.954C148.87 203.646 149.641 203.486 150.494 203.486V199.486ZM146.569 200.284C145.373 200.803 144.312 201.518 143.402 202.428L146.231 205.256C146.774 204.713 147.412 204.279 148.161 203.954L146.569 200.284ZM143.414 202.416C142.493 203.322 141.774 204.392 141.255 205.603L144.932 207.178C145.257 206.421 145.687 205.791 146.219 205.267L143.414 202.416ZM141.259 205.595C140.724 206.828 140.461 208.138 140.461 209.502H144.461C144.461 208.663 144.62 207.898 144.929 207.186L141.259 205.595ZM140.461 209.502C140.461 210.866 140.724 212.175 141.259 213.409L144.929 211.817C144.62 211.106 144.461 210.341 144.461 209.502H140.461ZM141.262 213.417C141.782 214.601 142.496 215.653 143.402 216.559L146.231 213.73C145.684 213.183 145.249 212.548 144.925 211.809L141.262 213.417ZM143.402 216.559C144.312 217.469 145.373 218.183 146.569 218.702L148.161 215.032C147.412 214.707 146.774 214.273 146.231 213.73L143.402 216.559ZM146.569 218.702C147.806 219.238 149.121 219.5 150.494 219.5V215.5C149.641 215.5 148.87 215.34 148.161 215.032L146.569 218.702ZM150.494 219.5C151.859 219.5 153.168 219.237 154.401 218.702L152.81 215.032C152.098 215.341 151.333 215.5 150.494 215.5V219.5ZM154.393 218.705C155.604 218.186 156.674 217.468 157.58 216.547L154.729 213.742C154.205 214.274 153.575 214.704 152.818 215.029L154.393 218.705ZM157.569 216.559C158.475 215.653 159.189 214.601 159.708 213.417L156.046 211.809C155.722 212.548 155.287 213.183 154.74 213.73L157.569 216.559ZM159.712 213.409C160.247 212.175 160.51 210.866 160.51 209.502H156.51C156.51 210.341 156.351 211.106 156.042 211.817L159.712 213.409ZM171.887 222V224H173.887V222H171.887ZM166.842 222H164.842V224H166.842V222ZM166.842 196.793V194.793H164.842V196.793H166.842ZM171.887 196.793H173.887V194.793H171.887V196.793ZM171.887 220H166.842V224H171.887V220ZM168.842 222V196.793H164.842V222H168.842ZM166.842 198.793H171.887V194.793H166.842V198.793ZM169.887 196.793V222H173.887V196.793H169.887Z" fill="black"/>
</svg>
